<?xml version="1.0" encoding="UTF-8"?>
<svg width="22px" height="29px" viewBox="0 0 22 29" version="1.1" xmlns="http://www.w3.org/2000/svg" xmlns:xlink="http://www.w3.org/1999/xlink">
    <!-- Generator: Sketch 61 (89581) - https://sketch.com -->
    <title>Icons / conservation</title>
    <desc>Created with Sketch.</desc>
    <g id="Icons-/-conservation" stroke="none" stroke-width="1" fill="none" fill-rule="evenodd" stroke-linecap="round" stroke-linejoin="round">
        <g id="Group-30" transform="translate(1.000000, 1.000000)" stroke="#494949" stroke-width="2">
            <line x1="2.09999996" y1="22.4000696" x2="17.7888234" y2="22.4000696" id="Stroke-5-Copy"></line>
            <path d="M14.3720468,0.699999988 C9.72229001,6.89202185 19.5272738,10.0460441 19.5999997,15.6759083 C19.6035578,19.4936082 18.1513109,23.1794013 15.5227225,26.0247202 C15.1862176,26.3907443 14.7021353,26.5999995 14.195952,26.5999995 L5.40404766,26.5999995 C4.89786439,26.5999995 4.41449501,26.3907443 4.07727714,26.0247202 C1.44868881,23.1794013 -0.00355812412,19.4936082 0,15.6759083 C0.0734387677,10.0460441 9.87913553,6.89202185 5.22937878,0.699999988" id="Stroke-1"></path>
            <line x1="2.79999995" y1="0.699999988" x2="17.4999997" y2="0.699999988" id="Stroke-9"></line>
            <polyline id="Path-19" points="16.7999997 10.4999998 9.79999983 14.0667126 13.2999998 17.8120063 10.7243555 18.8999997"></polyline>
        </g>
    </g>
</svg>