<?xml version="1.0" encoding="UTF-8"?>
<svg width="31px" height="31px" viewBox="0 0 31 31" version="1.1" xmlns="http://www.w3.org/2000/svg" xmlns:xlink="http://www.w3.org/1999/xlink">
    <!-- Generator: Sketch 61 (89581) - https://sketch.com -->
    <title>Icons / season</title>
    <desc>Created with Sketch.</desc>
    <g id="Icons-/-season" stroke="none" stroke-width="1" fill="none" fill-rule="evenodd" stroke-linecap="round" stroke-linejoin="round">
        <g id="Group-42" transform="translate(1.000000, 1.000000)" stroke="#494949" stroke-width="2">
            <path d="M17.150671,25.7105361 C17.150671,25.7105361 18.7604441,28.8206236 21.4689303,28.5875228 C26.9598544,28.1138422 26.5927364,21.2242816 28.6000006,18.7910589 C25.1559578,17.1705724 21.0978505,17.2054752 17.6855013,18.8845485 C14.8409966,20.4003266 14.6389496,22.9606952 17.150671,25.7105361 Z" id="Path"></path>
            <path d="M20.9000003,22.0000005 C20.9000003,22.0000005 17.6878005,22.4381639 15.4000003,28.6000006" id="Path"></path>
            <path d="M12.3672143,23.1000005 C7.61466497,22.0071808 4.63892843,17.2307141 5.72279732,12.4331301 C6.80666621,7.63554614 11.5356816,4.63161185 16.2895384,5.72443153 C19.9503743,6.56648341 22.6829267,9.65488686 23.1000005,13.4216832" id="Path"></path>
            <line x1="13.7500003" y1="2.20000005" x2="13.7500003" y2="0" id="Path"></line>
            <line x1="23.1000005" y1="5.50000012" x2="24.2000005" y2="4.4000001" id="Path"></line>
            <line x1="5.50000012" y1="23.1000005" x2="4.4000001" y2="24.2000005" id="Path"></line>
            <line x1="2.20000005" y1="13.7500003" x2="0" y2="13.7500003" id="Path"></line>
            <line x1="5.50000012" y1="5.50000012" x2="4.4000001" y2="4.4000001" id="Path"></line>
        </g>
    </g>
</svg>