<?xml version="1.0" encoding="UTF-8"?>
<svg width="22px" height="29px" viewBox="0 0 22 29" version="1.1" xmlns="http://www.w3.org/2000/svg" xmlns:xlink="http://www.w3.org/1999/xlink">
    <!-- Generator: Sketch 61 (89581) - https://sketch.com -->
    <title>Icons / shape object</title>
    <desc>Created with Sketch.</desc>
    <g id="Icons-/-shape-object" stroke="none" stroke-width="1" fill="none" fill-rule="evenodd" stroke-linecap="round" stroke-linejoin="round">
        <g id="Group-24" transform="translate(1.000000, 1.000000)" stroke="#494949" stroke-width="2">
            <path d="M14.1113062,0.349999994 C9.54590627,6.62619989 19.1730061,9.82309983 19.2444125,15.5294997 C19.2479061,19.3990997 17.8220061,23.1349996 15.2411062,26.0189996 C14.9107062,26.3899996 14.4354062,26.6020995 13.9384062,26.6020995 L5.30600634,26.6020995 C4.80900635,26.6020995 4.33440635,26.3899996 4.00330636,26.0189996 C1.4224064,23.1349996 -0.00349357191,19.3990997 4.54747351e-13,15.5294997 C0.0721064268,9.82309983 9.69990626,6.62619989 5.13450634,0.349999994" id="Stroke-1"></path>
            <line x1="0.436316421" y1="13.4749998" x2="18.8085161" y2="13.4749998" id="Stroke-3"></line>
            <line x1="1.5075264" y1="22.2249996" x2="17.7538261" y2="22.2249996" id="Stroke-5"></line>
            <path d="M18.9394861,18.7249997 L15.4394862,18.7249997 C15.1251862,18.7249997 14.8696862,18.4694997 14.8696862,18.1544997 L14.8696862,17.5447997 C14.8696862,17.2304997 14.6134862,16.9749997 14.2984862,16.9749997 L14.2963862,16.9749997 L11.9352862,16.9749997 C11.6202862,16.9749997 11.3647862,17.2304997 11.3647862,17.5447997 L11.3647862,18.1544997 C11.3647862,18.4694997 11.1085862,18.7249997 10.7935862,18.7249997 L10.7893862,18.7249997 L8.44578628,18.7249997 C8.13078629,18.7249997 7.87528629,18.4694997 7.87528629,18.1544997 L7.87528629,17.5447997 C7.87528629,17.2304997 7.6197863,16.9749997 7.3047863,16.9749997 L4.94088634,16.9749997 C4.62588635,16.9749997 4.37038635,17.2304997 4.37038635,17.5447997 L4.37038635,18.1544997 C4.37038635,18.4694997 4.11488636,18.7249997 3.79988636,18.7249997 L0.305486423,18.7249997" id="Stroke-7"></path>
            <line x1="2.62283638" y1="0.349999994" x2="16.6228361" y2="0.349999994" id="Stroke-9"></line>
            <path d="M13.1891262,5.29374991 C16.6226261,1.31144998 20.5524261,4.29974993 18.1381261,12.1880498" id="Stroke-11"></path>
            <path d="M6.00047633,5.29374991 C2.56627638,1.31144998 -1.36282355,4.29974993 1.05077641,12.1880498" id="Stroke-13"></path>
        </g>
    </g>
</svg>