<?xml version="1.0" encoding="UTF-8"?>
<svg width="30px" height="30px" viewBox="0 0 30 30" version="1.1" xmlns="http://www.w3.org/2000/svg" xmlns:xlink="http://www.w3.org/1999/xlink">
    <!-- Generator: Sketch 61 (89581) - https://sketch.com -->
    <title>Icons / ware</title>
    <desc>Created with Sketch.</desc>
    <g id="Icons-/-ware" stroke="none" stroke-width="1" fill="none" fill-rule="evenodd" stroke-linecap="round" stroke-linejoin="round">
        <g id="Group-27" transform="translate(1.000000, 1.000000)" stroke="#494949" stroke-width="2">
            <path d="M0,27.1395266 C0,27.1395266 1.76549257,25.3446671 1.9530449,20.7189312 C1.92803792,19.4574789 2.41817467,18.2403745 3.3146748,17.3398651 C5.2089533,15.6004405 8.17603112,15.703919 9.94152369,17.5702279 C11.6194918,19.3441453 11.6194918,22.0949491 9.94152369,23.8688664 C7.39706379,26.5371338 3.66102143,27.7653252 0,27.1395266 Z" id="Path"></path>
            <line x1="11.8999998" y1="12.5999998" x2="14.6999997" y2="15.3999997" id="Path"></line>
            <path d="M26.2962324,0.997715475 C24.959569,-0.333391693 22.794742,-0.332161465 21.4593127,0.998945703 C21.3963674,1.06291758 21.3346562,1.12811969 21.2766477,1.19701248 L8.39999986,16.2943759 C9.58238543,16.7717045 10.5142237,17.7152897 10.9758231,18.8999997 L26.0975225,6.00597544 C27.5353923,4.78558883 27.7081835,2.6339193 26.4838343,1.20070317 C26.4245916,1.13058015 26.3616462,1.06291758 26.2962324,0.997715475 Z" id="Path"></path>
        </g>
    </g>
</svg>