<?xml version="1.0" encoding="UTF-8"?>
<svg width="229px" height="37px" viewBox="0 0 229 37" version="1.1" xmlns="http://www.w3.org/2000/svg" xmlns:xlink="http://www.w3.org/1999/xlink">
    <!-- Generator: Sketch 61.2 (89653) - https://sketch.com -->
    <title>ThorikΩS</title>
    <desc>Created with Sketch.</desc>
    <g id="Symbols" stroke="none" stroke-width="1" fill="none" fill-rule="evenodd">
        <g id="Logo" transform="translate(-1.000000, -14.000000)" fill="#494949" fill-rule="nonzero">
            <path d="M21.1,50 L21.1,22.25 L33.1,22.25 L33.1,15 L1.1,15 L1.1,22.25 L13.1,22.25 L13.1,50 L21.1,50 Z M44.6,50 L44.6,38 C44.6,34.35 46.55,32.05 49.35,32.05 C52,32.05 53.6,33.95 53.6,36.75 L53.6,50 L61.1,50 L61.1,35.25 C61.1,29.45 57.75,25.8 52.1,25.8 C49.1,25.8 46.25,27.15 44.6,30 L44.6,15 L37.1,15 L37.1,50 L44.6,50 Z M78.2,50.5 C85.45,50.5 90.8,45.35 90.8,38.15 C90.8,30.95 85.45,25.8 78.2,25.8 C70.95,25.8 65.6,30.95 65.6,38.15 C65.6,45.35 70.95,50.5 78.2,50.5 Z M78.2,43.75 C75.15,43.75 72.85,41.55 72.85,38.15 C72.85,34.75 75.15,32.55 78.2,32.55 C81.25,32.55 83.55,34.75 83.55,38.15 C83.55,41.55 81.25,43.75 78.2,43.75 Z M102.8,50 L102.8,35.25 C102.8,33.05 103.85,31.75 105.65,31.75 C107.25,31.75 108.2,32.85 108.2,34.4 C108.2,35 108.1,35.55 107.95,36 L114.85,36 C115.1,35 115.25,34.05 115.25,33.1 C115.25,28.7 113.05,25.8 108.5,25.8 C105.85,25.8 103.8,27.15 102.8,29 L102.8,26.3 L95.3,26.3 L95.3,50 L102.8,50 Z M127.4,23.25 L127.4,15.5 L119.4,15.5 L119.4,23.25 L127.4,23.25 Z M127.15,50 L127.15,26.3 L119.65,26.3 L119.65,50 L127.15,50 Z M140.45,50 L140.45,43.25 L142.4,41.2 L148.45,50 L156.95,50 L147.25,36.05 L156.45,26.3 L147.45,26.3 L140.45,34 L140.45,15 L132.95,15 L132.95,50 L140.45,50 Z M175.9,50 L175.9,43 C171.1,40.8 167.6,36.65 167.6,31.4 C167.6,25.55 172,22 177.6,22 C183.2,22 187.6,25.55 187.6,31.4 C187.6,36.65 184.1,40.8 179.3,43 L179.3,50 L194.85,50 L194.85,42.75 L189.6,42.75 C193.05,39.75 195.6,36.15 195.6,30.6 C195.75,21.65 188.05,14.35 177.6,14.5 C167.15,14.35 159.45,21.65 159.6,30.6 C159.6,36.15 162.15,39.75 165.6,42.75 L160.35,42.75 L160.35,50 L175.9,50 Z M214.9,50.5 C223.75,50.5 229.15,46 229.15,39.85 C229.15,33.3 225.35,30.8 216.5,29.15 C211.9,28.3 209.15,27.05 209.15,24.5 C209.15,22.65 211.05,21.25 213.9,21.25 C217.65,21.25 219.9,23 221.15,27 L227.65,23.25 C225.65,17.5 220.8,14.5 214.15,14.5 C206.2,14.5 201.15,18.95 201.15,24.4 C201.15,31.05 206,34.55 213.4,35.6 C219.6,36.5 221.15,37.7 221.15,40.1 C221.15,42.25 218.75,43.5 215.15,43.5 C210.3,43.5 206.6,40.9 205.15,35.75 L198.4,40 C199.9,43.8 202.1,46.5 205.05,48.1 C208,49.7 211.25,50.5 214.9,50.5 Z" id="ThorikΩS"></path>
        </g>
    </g>
</svg>