<?xml version="1.0" encoding="UTF-8"?>
<svg width="26px" height="32px" viewBox="0 0 26 32" version="1.1" xmlns="http://www.w3.org/2000/svg" xmlns:xlink="http://www.w3.org/1999/xlink">
    <!-- Generator: Sketch 61 (89581) - https://sketch.com -->
    <title>Icons / production place</title>
    <desc>Created with Sketch.</desc>
    <g id="Icons-/-production-place" stroke="none" stroke-width="1" fill="none" fill-rule="evenodd" stroke-linecap="round" stroke-linejoin="round">
        <g id="Group-26" transform="translate(1.000000, 1.000000)" stroke="#494949" stroke-width="2">
            <path d="M23.5205576,11.7613064 C23.521864,5.26586657 18.2559974,0.00130666664 11.7618642,-3.21165321e-13 C11.7056776,-3.21165321e-13 11.6494909,-3.21165321e-13 11.5933042,0.00130666664 C5.46634436,0.15941333 0.459197789,4.94181324 0.0214644641,11.0557065 C-0.330028863,16.9004263 3.67098439,22.1140262 9.40855762,23.2847996 L11.7605576,29.4013061 L14.1125575,23.2847996 C19.5887974,22.1675996 23.5205576,17.3499197 23.5205576,11.7613064 Z" id="Path"></path>
            <path d="M11.7605576,3.92130659 C16.0908508,3.92130659 19.6005574,7.43101319 19.6005574,11.7613064 C19.6005574,16.0915997 16.0908508,19.6013063 11.7605576,19.6013063 C7.43026432,19.6013063 3.92055772,16.0915997 3.92055772,11.7613064 C3.92055772,7.43101319 7.43026432,3.92130659 11.7605576,3.92130659 Z" id="Path"></path>
            <path d="M4.96850437,7.84261318 L6.86055767,7.84261318 C7.94247765,7.84261318 8.82055763,8.72069317 8.82055763,9.80261315 L8.82055763,10.7172798 C8.82055763,11.3732264 9.14853096,11.9847464 9.69341095,12.3479998 L10.9451976,13.1829597 C11.7866909,13.7422131 12.0153576,14.8777064 11.4561042,15.7191997 C11.3215176,15.921733 11.1477309,16.0955197 10.9451976,16.2301064 L7.64455765,18.430533" id="Path"></path>
            <path d="M18.5526108,7.84261318 L17.6379441,7.84261318 C16.5560241,7.84261318 15.6779442,8.7193865 15.6779442,9.80261315 C15.6779442,10.1070665 15.7485042,10.4075998 15.8843975,10.6793865 C16.4423441,11.7952798 16.5703975,11.8488531 16.9166641,12.0566131 L19.3993308,13.5435997" id="Path"></path>
        </g>
    </g>
</svg>