<?xml version="1.0" encoding="UTF-8"?>
<svg width="40px" height="30px" viewBox="0 0 40 30" version="1.1" xmlns="http://www.w3.org/2000/svg" xmlns:xlink="http://www.w3.org/1999/xlink">
    <!-- Generator: Sketch 61 (89581) - https://sketch.com -->
    <title>Icons / tijdperk</title>
    <desc>Created with Sketch.</desc>
    <g id="Icons-/-tijdperk" stroke="none" stroke-width="1" fill="none" fill-rule="evenodd" stroke-linecap="round" stroke-linejoin="round">
        <g id="Group-25" transform="translate(1.000000, 1.000000)" stroke="#494949" stroke-width="2">
            <path d="M5.68520959,23.6245473 C6.06097624,25.1724246 5.11106866,26.7307927 3.56413082,27.1065559 C2.01719297,27.482319 0.458810455,26.533374 0.0820900796,24.9854967 C-0.293676573,23.4385731 0.656231006,21.8792513 2.20316885,21.5034881 C3.75106042,21.1277249 5.30944293,22.0776237 5.68520959,23.6245473 Z" id="Stroke-1"></path>
            <path d="M37.7470793,16.4502743 C38.4444454,19.3239183 36.6812361,22.2188786 33.8075196,22.916227 C30.9338031,23.6156056 28.0387697,21.8504106 27.3414037,18.9777817 C26.6430226,16.1041377 28.4062319,13.2091774 31.2799484,12.5108139 C34.1536649,11.8134655 37.0497133,13.5766303 37.7470793,16.4502743 Z" id="Stroke-3"></path>
            <path d="M19.620332,19.1768597 C21.0058528,20.7211633 20.9058667,23.1224384 19.397506,24.5399999 C17.8900976,25.9585363 15.5447109,25.8571426 14.1591902,24.3128391 C12.7746217,22.7695104 12.8736555,20.3682353 14.3820162,18.9496989" id="Stroke-5"></path>
            <line x1="12.3584993" y1="22.2452987" x2="5.76729967" y2="23.8930986" id="Stroke-7"></line>
            <line x1="27.1886984" y1="18.9496989" x2="20.5974988" y2="20.5974988" id="Stroke-9"></line>
            <path d="M7.41509957,2.19752293 L7.41509957,11.1118182 C7.41509957,12.3254924 8.42358484,13.3093412 9.66765067,13.3093412 L13.642446,13.3093412 L16.8894478,16.477999 L20.1364496,13.3093412 L24.1112449,13.3093412 C25.3553107,13.3093412 26.3647985,12.3254924 26.3647985,11.1118182 L26.3647985,2.19752293 C26.3647985,0.983848718 25.3553107,0 24.1112449,0 L9.66765067,0 C8.42358484,0 7.41509957,0.983848718 7.41509957,2.19752293 Z" id="Stroke-11"></path>
        </g>
    </g>
</svg>