<?xml version="1.0" encoding="UTF-8"?>
<svg width="1482px" height="1127px" viewBox="0 0 1482 1127" version="1.1" xmlns="http://www.w3.org/2000/svg" xmlns:xlink="http://www.w3.org/1999/xlink">
    <!-- Generator: Sketch 61.2 (89653) - https://sketch.com -->
    <title>Group</title>
    <desc>Created with Sketch.</desc>
    <defs>
        <rect id="path-1" x="0" y="0" width="1910" height="1202"></rect>
    </defs>
    <g id="All" stroke="none" stroke-width="1" fill="none" fill-rule="evenodd">
        <g id="Medewerkers-CTA-01-Copy-46" transform="translate(-162.000000, 0.000000)">
            <g id="Group" transform="translate(0.000000, -2.000000)">
                <mask id="mask-2" fill="white">
                    <use xlink:href="#path-1"></use>
                </mask>
                <g id="Rectangle"></g>
                <g id="Mappie" opacity="0.3" mask="url(#mask-2)" stroke="#000000">
                    <g transform="translate(163.000000, -70.000000)">
                        <path d="M97,485 C96.7724458,482.687742 96.5448916,480.359677 96.3150155,478 C95.5603715,479.910323 94.7987616,481.813871 94,483.699355 C95.000774,484.132903 96.001548,484.566452 97,485 Z" id="Stroke-1"></path>
                        <path d="M1462,561.22202 C1458.7251,560.98402 1455.85796,560.77202 1453,560.56402 C1456.51367,561.47002 1459.47082,561.63402 1462,561.22202 Z" id="Stroke-3"></path>
                        <path d="M1016.382,1154.15613 L1016.382,1161 C1016.479,1158.66667 1016.553,1156.33333 1016.618,1154 C1016.539,1154.05204 1016.46,1154.10626 1016.382,1154.15613 Z" id="Stroke-5"></path>
                        <path d="M663.422162,1170.54432 C663.697709,1171.65309 663.459148,1172.90214 663.459148,1176.62623 C641.317407,1158.16722 620.605179,1140.89961 597.806935,1121.89294 C602.282255,1121.20116 605.538883,1120.69962 608.401609,1120.25573 C597.660839,1121.10316 589.779097,1114.74647 581.688383,1107.40591 C565.346066,1092.57106 548.269574,1078.60479 531.405752,1064.39831 C518.083351,1053.17225 502.465962,1047.90127 485.65392,1045.88165 C483.412562,1045.6107 481.191545,1045.14567 478.454572,1042.49001 L491.275811,1036.17943 C491.013209,1035.13215 490.750608,1034.08487 490.488006,1033.03952 C480.213262,1035.59142 469.938518,1038.14716 459.663773,1040.70099 L459.53987,1042.10761 L476.62191,1042.10761 C461.222738,1051.07577 413.804682,1047.63416 403.139734,1037.00957 C427.96112,1029.82466 451.700662,1022.94913 476.259446,1015.83917 C476.928895,1020.501 477.356084,1023.46989 477.783274,1026.4407 C476.575677,1017.00366 482.327019,1015.78152 489.494929,1014.46906 C507.869634,1011.10624 526.177764,1008.23342 544.025416,1016.15623 C561.185127,1023.77542 578.067442,1032.07102 595.036674,1040.1514 C611.421526,1047.95123 627.712063,1055.96819 644.146845,1063.6508 C649.219492,1066.02015 651.684617,1068.83915 650.798799,1075.23812 C649.152917,1087.12329 647.960114,1099.14298 647.740047,1111.12807 C647.680869,1114.34101 655.085491,1118.22843 646.735874,1119.32951 C648.442783,1121.51439 651.335098,1123.67428 652.115505,1126.47023 C656.193225,1141.07063 659.75129,1155.82477 663.422162,1170.54432 Z M227.424222,905.651999 C216.341331,908.284608 205.263988,911.067103 194.055344,912.97142 C182.617386,914.916092 178.445352,910.805763 172.242779,900.352193 C154.432113,870.330845 147.2716,836.16458 136.639939,803.422229 C134.324608,796.289204 130.724009,789.928668 128.425322,782.878273 C125.788212,774.795972 122.479803,766.456174 117.514416,759.795866 C109.053841,748.456433 108.584117,736.707696 112.001635,723.844423 C114.115392,715.888949 115.617028,707.720175 118.261536,699.96647 C121.536657,690.369938 126.374442,688.896062 134.500292,694.599407 C151.260553,706.365439 161.592626,723.977015 171.545591,741.409881 C180.531369,757.151728 186.528668,774.747931 195.632802,790.405228 C200.812708,799.3119 208.437397,807.936096 216.947903,813.258962 C243.226542,829.704119 262.220765,854.13934 285.190995,876.016896 C282.004641,876.843189 280.597319,877.210217 277.292609,878.067256 C293.019107,876.92774 294.703825,889.566183 300.388592,898.467091 C274.352212,884.800585 251.356092,899.96787 227.424222,905.651999 Z M164.534872,671.522766 C164.490488,669.691469 166.853901,667.800603 168.126224,665.936639 C169.849777,670.200696 171.569632,674.466676 173.515102,679.288001 C161.631461,682.983261 164.631036,675.488973 164.534872,671.522766 Z M183.797243,732.704977 C184.758883,733.102751 185.472715,735.287624 185.53929,736.684636 C185.787097,741.901813 184.274364,747.174717 191.96193,749.305785 C193.713222,749.791953 193.112198,759.440368 193.593018,764.870844 C192.834802,765.024573 192.074737,765.178302 191.314672,765.332031 C182.637729,749.021387 173.960785,732.708821 165.281991,716.398176 L166.400821,715.07995 C168.026361,716.006167 170.576555,716.540375 171.116552,717.923936 C173.685238,724.503536 177.104605,729.943621 183.797243,732.704977 Z M226.915663,792.144287 C226.910115,792.142365 226.908266,792.140444 226.902718,792.138522 C226.9508,794.60395 227.525934,799.054404 226.963745,799.21582 C223.359448,800.245804 218.832346,801.829212 215.886402,800.397611 C210.917316,797.982145 206.896925,793.458669 202.943109,788.652717 C211.240945,789.017824 220.043642,783.228006 226.915663,792.144287 Z M241.95237,762.989586 C242.45908,755.716284 242.960242,748.517924 243.450308,741.482902 C248.50816,737.645442 254.829088,741.896049 260.573033,734.409447 C265.199997,728.377507 263.968359,722.843263 266.962385,716.469276 C276.549188,716.469276 286.614961,715.994637 296.616008,716.621083 C304.479257,717.113016 309.511219,728.677278 304.000287,734.100068 C296.98402,741.002499 288.547485,746.348424 280.721222,752.366914 C279.164107,753.564078 277.603292,754.755478 276.044327,755.95072 C275.526522,755.228194 275.010565,754.505668 274.49276,753.78122 C273.760434,755.725892 273.028109,757.668642 271.883389,760.710554 C270.696134,758.650586 269.884289,757.242044 269.714153,756.948037 C264.922601,761.07566 260.108857,764.630643 255.992302,768.908152 C249.791579,775.349396 243.60565,781.925153 238.322183,789.158101 C234.878775,793.873738 231.753448,795.028627 227.095046,792.240367 C227.091347,783.118474 227.091347,773.990816 227.091347,764.338558 C232.755772,763.825487 236.898217,763.44693 241.95237,762.989586 Z M255.607646,733.258402 L255.949768,736.108153 L234.508914,736.108153 L234.488571,733.258402 L255.607646,733.258402 Z M253.608546,658.036891 C259.618791,658.134893 265.623488,658.757496 271.630034,659.189858 C271.569007,660.365885 271.509829,661.541912 271.450651,662.717938 L250.181782,662.717938 L249.455005,660.769424 C250.840135,659.812461 252.238211,658.015753 253.608546,658.036891 Z M266.078417,690.95603 C270.611066,691.684321 274.688786,692.339591 278.766506,692.992939 C278.712876,693.932607 278.659246,694.870354 278.605616,695.808101 C275.879739,696.244307 273.155711,696.678591 271.363734,696.966833 C270.366958,699.939567 269.50703,702.502998 268.645254,705.06835 C267.789025,704.803168 266.934646,704.539907 266.078417,704.274724 L266.078417,690.95603 Z M252.023691,688.334951 C251.193353,688.308048 249.89514,686.845702 249.754593,685.898347 C249.619593,685.000954 250.743971,683.014007 251.276572,683.02938 C257.993251,683.211933 264.702533,683.669277 271.411816,684.057442 C271.282364,685.519789 271.152913,686.982136 271.023461,688.446405 C264.687739,688.446405 258.350167,688.538642 252.023691,688.334951 Z M255.696413,701.79008 C254.549843,703.098698 252.169786,703.240897 250.32048,703.884637 C250.124454,700.149023 249.686168,696.394193 249.983907,692.700854 C250.030139,692.130135 253.421767,691.657419 255.295114,691.486395 C257.566061,691.278861 259.870297,691.436433 263.605895,691.436433 C262.801447,696.782358 262.181929,700.909981 261.560562,705.035683 C260.610019,704.856973 259.659476,704.680185 258.708932,704.503396 C258.416742,701.770864 258.122702,699.038331 257.830512,696.30772 C257.175858,696.371133 256.523053,696.432625 255.870248,696.49796 C255.870248,698.315805 256.567436,700.794685 255.696413,701.79008 Z M279.249175,680.629286 C269.592099,680.629286 261.312755,680.725367 253.040809,680.515911 C251.921979,680.489008 250.152193,679.090075 249.943222,678.052404 C249.745346,677.076225 251.215544,674.718368 251.953418,674.718368 C260.548992,674.714564 269.146416,674.998962 277.732744,675.421717 C278.102605,675.440933 278.376302,677.531647 279.249175,680.629286 Z M345.445084,674.964373 C349.951843,674.549305 354.54367,674.660758 359.055977,675.0912 C360.601997,675.239164 362.011168,676.934026 363.481366,677.923656 C362.136921,678.769165 360.822064,680.277631 359.440633,680.346809 C353.913057,680.629286 348.363289,680.464027 342.822768,680.464027 C342.282771,679.778012 341.742774,679.095839 341.204626,678.411745 C342.611948,677.206895 343.945297,675.100808 345.445084,674.964373 Z M359.028237,689.007515 C358.08879,689.291914 356.846056,688.496366 355.740171,688.183144 L355.629213,689.270776 C351.96019,689.270776 348.270824,689.491762 344.633239,689.128577 C343.601326,689.02481 341.759417,686.841858 341.968389,686.265375 C342.482496,684.839538 343.932352,682.806473 345.067826,682.764197 C349.809447,682.58933 354.600999,682.821846 359.311181,683.427153 C360.831311,683.621236 362.160962,685.417944 363.57753,686.480595 C362.070346,687.358772 360.642681,688.519426 359.028237,689.007515 Z M358.606595,697.281978 C354.462301,697.810421 350.216294,697.937247 346.051657,697.627868 C344.572212,697.518336 343.209273,695.683196 341.792705,694.635917 C342.992905,693.627071 344.15057,691.814991 345.397002,691.749656 C351.244508,691.442198 357.116055,691.613221 362.980204,691.613221 C363.2576,692.550968 363.533147,693.490637 363.810543,694.428383 C362.081442,695.423779 360.426313,697.049462 358.606595,697.281978 Z M1478.69058,535.929964 C1474.58142,546.460399 1471.53561,557.842108 1460.91875,559.492773 C1463.11387,559.646502 1465.48838,559.81176 1468.17912,559.998157 C1449.76004,587.431093 1432.74642,613.766789 1405.25464,632.982911 C1404.72389,627.867579 1404.43724,625.12736 1404.15245,622.389063 C1405.48765,634.437571 1399.82692,642.504499 1391.58087,650.310088 C1368.00037,672.641144 1344.36808,694.989494 1322.02107,718.625325 C1299.43919,742.509043 1278.40704,767.974248 1256.54269,792.597787 C1255.41277,793.869895 1252.83668,793.756519 1250.93375,794.286884 C1250.88381,793.985191 1250.83203,793.68542 1250.78025,793.383727 C1250.68039,793.564358 1250.57868,793.746911 1250.47882,793.927543 C1248.44273,799.565553 1245.94617,804.978735 1242.70618,809.857708 C1236.94929,818.529944 1230.30289,826.587264 1224.79565,835.418994 C1202.61138,870.989958 1185.46831,909.118588 1170.73304,948.636543 C1159.21556,979.52646 1139.26895,1004.61887 1115.42215,1026.40419 C1112.22655,1029.32504 1109.27875,1032.54566 1106.33281,1035.7413 C1095.67341,1047.30941 1084.80504,1058.68535 1074.49885,1070.5859 C1059.56756,1087.82468 1039.66348,1095.51497 1018.73858,1103.10534 C1018.4057,1098.77595 1018.09502,1094.74249 1017.7566,1090.3516 C1016.77831,1108.42436 1016.36962,1110.16535 998.61443,1110.48625 C981.830128,1110.78795 964.938567,1108.46472 948.19495,1106.41436 C933.953444,1104.67146 919.887622,1099.99233 905.683103,1099.68872 C890.518793,1099.36396 875.291607,1102.75945 860.071819,1104.32557 C840.839036,1106.30675 821.609952,1109.16803 802.334635,1109.60808 C786.460192,1109.97126 786.434301,1108.65304 784.03945,1092.30012 L784.03945,1107.47893 C781.663092,1107.16763 780.117072,1107.20991 778.726394,1106.74872 C751.434335,1097.67487 723.646663,1089.90771 697.016656,1079.06982 C664.879415,1065.99132 633.692718,1050.37438 602.160201,1035.70287 C581.157632,1025.93147 560.349241,1015.70657 539.285645,1006.08506 C532.154721,1002.82601 524.491197,1000.83137 517.092123,998.193001 C510.147979,995.714121 507.601485,1003.6523 502.290278,1004.85331 C496.296677,1006.20612 489.885133,1008.92905 484.263242,1007.79722 C478.143889,1006.56354 474.434181,1010.33183 469.642629,1011.53668 C446.877671,1017.25539 424.090522,1022.95874 401.567824,1029.60752 C384.827906,1034.5499 375.893908,1033.41615 367.006144,1018.05863 C356.927426,1000.64498 349.247258,981.720941 340.810723,963.313817 C340.281822,962.16085 342.23284,959.778051 342.905987,958.250369 C341.663254,957.825693 339.076074,957.781496 338.375187,956.565115 C328.958521,940.214117 319.504869,923.868883 310.696624,907.158543 C305.588841,897.467853 303.589741,885.267537 296.751007,877.448497 C280.491908,858.860742 261.778781,842.609667 245.016671,824.458118 C241.308812,820.445792 239.132179,811.860028 240.404501,806.431474 C247.165564,777.565015 269.323949,761.48112 299.171749,761.944229 C300.66044,761.967288 302.171323,760.408861 303.67111,759.588332 L305.881031,756.137117 C302.973922,755.539495 300.066813,754.943796 299.724691,754.872696 C311.419703,727.948987 328.339004,732.37446 346.676722,745.633584 C347.995277,742.895287 348.979108,740.854535 350.382732,737.943292 C336.546224,731.234944 323.429096,724.874407 310.313818,718.513871 C316.227898,717.366669 322.345403,712.845115 326.445314,721.115734 C327.085174,722.403214 334.946574,721.905517 335.190682,720.994672 C337.060331,714.026906 342.149621,716.838225 345.850082,716.792106 C364.541019,716.55767 383.235653,716.684496 402.048644,716.684496 L402.048644,697.731635 L381.469566,697.731635 L381.469566,673.480888 C365.36396,672.02815 363.65705,669.968181 369.288187,656.860864 L340.429766,656.860864 C340.263329,659.601083 340.470451,661.589952 339.974837,663.361678 C338.20875,669.654959 342.565715,675.938631 333.977538,682.764197 C326.706066,688.540564 320.817876,687.794978 314.043868,688.676998 C309.505671,689.270776 304.815831,688.665468 300.196264,688.517504 C287.09763,688.094749 281.335192,681.876412 281.464643,668.355949 C281.507177,663.876671 281.76793,659.383941 281.544163,654.920036 C281.444301,652.900422 280.876564,650.536838 279.694857,649.026451 C277.305554,645.965323 274.354062,643.378833 270.768257,639.710475 C266.918002,639.339604 260.639608,640.40802 256.275246,637.894552 C250.710684,634.689302 249.623292,639.112854 248.40275,641.397651 C244.774411,648.188628 242.002302,655.47346 238.551497,663.346306 L201.798388,663.346306 L164.209394,663.346306 C162.96666,666.280607 162.556114,669.510838 160.786328,671.042363 C152.553218,678.158093 150.966513,683.821084 157.971685,690.150875 C165.089664,696.582511 160.690164,703.275486 162.535772,711.548027 C154.110334,703.219759 147.948446,696.055989 140.76759,690.256563 C125.370268,677.819889 116.632297,681.088551 110.958626,700.59868 C110.60171,701.822747 110.433423,703.100619 110.139384,704.345824 C107.711245,714.628371 105.275709,724.91284 103.152706,733.875239 C85.7507358,724.37671 68.8443799,714.981948 51.7789838,705.906173 C42.7747127,701.117516 33.0751025,697.622103 24.4258982,692.262726 C4.46079015,679.887544 1.87546031,672.742989 9.68507972,650.223616 C12.9675979,640.757754 17.1729199,631.036318 23.1905617,623.305672 C40.7552705,600.738258 49.1714623,574.679274 54.9782833,546.848564 C60.7629125,519.135073 74.9803774,495.566499 92.9889196,474.472961 C93.4253558,473.959891 94.6366513,474.163582 95.8276044,473.98295 C95.988494,475.731617 96.1419864,477.422636 96.2954788,479.09636 C98.882658,472.107457 101.294153,465.018629 104.68763,458.479383 C115.709494,437.241725 127.428546,415.408366 127.798407,391.357468 C128.253336,361.826131 124.937531,332.037298 120.976317,302.690436 C117.869483,279.686816 111.707595,257.08097 106.167074,234.492418 C99.8184068,208.602537 93.2459731,182.739558 85.6397774,157.228234 C80.8685678,141.221204 74.0187382,125.879052 67.8956859,109.697156 C70.1629352,108.970786 71.8495023,108.380851 73.5601103,107.885075 C91.4909817,102.694801 109.501373,97.7716301 127.328683,92.2239356 C135.543301,89.6681913 143.476824,84.6354889 144.889694,75.5039876 C146.452357,65.4097586 147.839337,53.7763182 144.482846,44.7505055 C140.198004,33.2304402 131.663457,23.1554273 123.898221,13.3724995 C123.236169,12.5365982 122.551926,11.7583452 121.871381,10.9743274 C120.049815,11.1184483 118.139482,10.7629501 116.343806,9.95587295 C115.857438,9.73873077 115.374769,9.51966697 114.890251,9.29675995 C114.851416,10.0212078 114.721964,10.7360475 114.527787,11.4412792 C122.814527,18.5589309 129.076278,26.9948086 133.353723,37.1389995 C136.658432,44.9714909 138.295068,53.8109072 139.319584,62.3736113 C140.695468,73.8725388 136.02412,82.8445463 125.425748,86.4168235 C109.253566,91.8684373 92.3583062,94.9833708 76.1029062,100.204391 C66.4754189,103.296265 62.4827672,100.160194 58.3329244,91.1401463 C48.3207815,69.3759662 36.7848104,48.3727446 26.2326702,26.8699038 C23.397684,21.0916158 21.8886503,14.613861 20.5368076,10.684164 C17.500247,6.60265961 15.4826542,3.89126476 13.4650613,1.17986991 L14.00136,0.042275469 C9.60925817,0.0153728978 5.21900563,0 0.826903784,0 C2.83340084,1.10492703 4.74558328,2.2636592 5.53708627,3.97965892 C9.58151858,12.7479755 12.5847916,22.0351274 15.6638861,30.2461765 C16.5386079,30.1942929 18.5728445,29.7042818 18.7725696,30.1328013 C19.6861268,32.0986106 19.736058,34.5159988 20.7235875,36.4222382 C34.0256458,62.0507804 48.5870816,87.0509555 60.5520917,113.330924 C79.9698051,155.975343 91.6907068,201.452218 101.46244,247.382593 C107.898025,277.634535 113.003959,308.188169 119.226874,338.493915 C126.613002,374.454967 121.845491,408.853747 105.170298,440.702548 C97.9265667,454.538156 93.5400128,475.862287 69.8411559,469.40567 C69.7135538,469.369159 69.3547884,470.258866 68.6982848,471.448344 L85.3383405,471.448344 C82.8547225,475.343452 81.2106894,477.933785 79.5518619,480.51451 C65.8891889,501.800209 51.4405608,522.920649 48.2948912,549.11991 C45.9388753,568.745336 38.2309678,585.857293 28.7181375,602.342804 C17.9477791,621.005502 4.80106246,638.069418 0.882382965,660.652205 C-1.24801759,672.925543 0.0390994107,683.042831 9.65549082,689.372622 C23.7231619,698.630949 38.3548713,707.61833 53.8298642,713.784783 C88.5727768,727.629999 111.700198,752.318873 124.131233,788.308749 C124.846915,790.378325 122.735007,794.767287 123.593085,795.324555 C132.416124,801.056724 131.315787,811.429587 134.337553,819.650244 C143.865178,845.551655 151.478771,872.26783 161.986528,897.709976 C171.408742,920.5272 172.806818,919.81236 198.269912,917.748548 C198.576897,917.725489 198.885731,917.687057 199.185319,917.6198 C222.549451,912.212384 245.933926,906.906812 269.264771,901.359118 C284.580724,897.715741 296.53094,902.283413 305.008159,916.188199 C313.111818,929.481913 321.228422,942.769861 329.489272,956.303776 C326.704217,957.176188 324.954773,957.723847 324.893746,957.743064 C328.309415,961.042472 332.647887,963.613589 334.634041,967.487559 C338.935527,975.873475 342.460304,984.768618 345.541248,993.738704 C356.337497,1025.17436 376.147263,1045.48964 408.90772,1049.89974 C409.397786,1052.42858 409.793537,1054.47894 409.854564,1054.79025 C414.270707,1053.84481 418.069182,1052.35172 421.867657,1052.3498 C430.792407,1052.34596 439.715309,1053.21837 448.645608,1053.4259 C457.768235,1053.63536 466.898259,1053.47202 476.405541,1053.47202 C476.795745,1058.83908 477.139715,1063.55664 477.483686,1068.27612 C477.668617,1068.28381 477.851698,1068.29342 478.03478,1068.3011 C478.413887,1063.42789 478.791146,1058.55468 479.225733,1052.93973 C494.782095,1054.25796 509.380517,1056.06235 521.460184,1066.19117 C533.147798,1075.98947 544.424866,1086.31237 555.984878,1096.27785 C579.32497,1116.39906 602.813006,1136.33963 626.01255,1156.63377 C628.806852,1159.07422 630.208626,1163.23259 631.375538,1165.15036 C634.441687,1166.02085 636.980784,1166.05736 638.654406,1167.32562 C649.323053,1175.41369 660.675943,1182.84264 670.064869,1192.34309 C674.519848,1196.84927 678.882361,1198.07526 683.501927,1197.99649 C683.940213,1195.24088 683.54816,1192.2374 682.839876,1189.29734 C672.94239,1179.42601 669.820761,1165.50201 667.126322,1151.56264 C666.135094,1146.43193 668.036181,1140.69976 668.611315,1135.24239 C669.430558,1135.32886 670.247951,1135.41725 671.067193,1135.50565 C666.967282,1131.60093 662.86922,1127.70006 658.769308,1123.79918 L660.735121,1120.6977 C664.78695,1121.5336 668.83878,1122.37335 672.890609,1123.20925 C673.053348,1122.45598 673.216087,1121.70271 673.380675,1120.94751 C671.180001,1120.23459 668.903505,1119.70615 666.800844,1118.76072 C664.060173,1117.52512 659.475743,1116.37215 659.10958,1114.46976 C656.439183,1100.58034 654.36611,1086.5103 658.207119,1070.93948 C674.157384,1077.79194 689.003613,1083.91804 703.570596,1090.69365 C705.832298,1091.74477 707.988588,1095.68792 708.167971,1098.43582 C708.750503,1107.28485 708.38434,1116.20113 708.38434,1123.74538 C710.433371,1122.59241 712.336307,1120.94943 714.481502,1120.46327 C716.989161,1119.89447 719.70949,1120.33067 722.333655,1120.33067 C722.326258,1120.02129 722.317012,1119.71384 722.307765,1119.40446 C718.13758,1119.17963 713.967395,1118.95288 709.991387,1118.73958 L709.991387,1094.23134 C734.907087,1101.22985 759.094161,1108.02083 783.867465,1114.97898 L783.867465,1133.5014 C784.634927,1133.43991 785.413484,1133.4745 786.180946,1133.59172 L786.180946,1114.8829 C790.177297,1114.8829 792.340985,1114.64078 794.439947,1114.91941 C820.182287,1118.31875 845.414219,1114.39097 870.296632,1108.29754 C888.105449,1103.93548 905.66461,1103.83555 923.375414,1107.56733 C954.064647,1114.02971 984.672512,1121.26266 1018.07838,1113.92786 C1015.29332,1120.70923 1018.21892,1128.21697 1016.87633,1134.71971 C1017.3479,1134.56406 1017.81947,1134.40841 1018.2892,1134.25468 C1018.35947,1129.5448 1018.41495,1124.83685 1018.5407,1120.13083 C1018.63317,1116.67 1019.52823,1111.522 1021.76219,1110.14805 C1029.06325,1105.66109 1037.08739,1102.39627 1044.96544,1098.99694 C1048.61597,1097.42121 1053.64978,1097.80361 1056.21477,1095.27862 C1070.55243,1081.16822 1088.41488,1071.1547 1100.10619,1053.92936 C1104.64069,1047.24984 1109.37492,1039.35586 1115.92146,1035.77205 C1133.82459,1025.96991 1144.16406,1008.50629 1157.83413,994.511192 C1164.67472,987.504994 1169.79544,978.686715 1176.00171,970.270054 C1181.65874,971.140544 1181.65874,971.140544 1184.54181,961.426794 C1182.88853,960.62356 1179.74656,959.614714 1179.81868,959.051682 C1181.88251,942.873628 1186.46139,927.717873 1195.99641,916.047922 C1195.99641,928.768994 1195.81148,941.972392 1196.03895,955.166182 C1196.42915,977.820068 1196.84709,1000.4778 1197.67558,1023.11631 C1198.78516,1053.42206 1200.2942,1083.71051 1201.63495,1114.00281 C1201.86426,1119.16618 1201.84577,1124.12778 1197.46476,1123.68197 C1198.29695,1125.14239 1201.0968,1127.79229 1201.11899,1130.4691 C1201.24289,1144.22784 1200.82495,1158.00196 1200.25351,1171.75494 C1200.12961,1174.7123 1200.19064,1177.76382 1200.04084,1180.75577 C1200.19064,1181.94717 1200.35708,1183.1328 1200.5679,1184.30883 C1204.1648,1188.8765 1208.65121,1192.1663 1213.38729,1188.9918 C1215.40673,1187.63706 1216.85658,1185.25619 1218.12336,1182.81766 C1218.59123,1180.27152 1218.91486,1177.76382 1218.93151,1175.25419 C1219.02212,1160.75947 1217.89035,1146.24362 1216.85658,1131.76427 C1216.64761,1128.84149 1217.06186,1126.88337 1218.08452,1125.60934 C1217.97356,1123.77805 1217.91069,1121.92946 1217.8811,1120.06357 C1217.13398,1118.60314 1216.74747,1116.59698 1216.71234,1113.81641 C1216.39611,1088.60293 1214.9444,1063.40676 1214.32488,1038.19328 C1213.41687,1001.25029 1212.74927,964.301526 1212.26291,927.350845 C1212.20003,922.631365 1214.09927,917.919572 1214.63002,913.148209 C1215.74145,903.148139 1213.77194,891.551209 1218.01795,883.390122 C1229.05461,862.173601 1242.17913,842.02934 1255.62728,822.305912 C1264.06937,809.926886 1274.15178,798.637414 1284.28783,787.641949 C1306.06896,764.015727 1328.42337,740.958302 1350.42826,717.553065 C1378.64682,687.53556 1407.14648,657.78516 1434.73442,627.152739 C1448.1234,612.281382 1459.37088,595.351979 1472.21801,579.921432 C1483.38782,566.500893 1479.49503,551.370118 1478.69058,535.929964 Z" id="Stroke-7"></path>
                        <path d="M494.716323,909.554369 C496.984332,909.060802 499.524502,908.839945 499.550962,908.452005 C499.942193,902.350592 500.093394,896.228053 500.021574,890.111276 C500.014014,889.510161 497.738445,888.202304 497.258383,888.492298 C496.165959,889.151028 494.876974,890.570274 494.827834,891.734094 C494.580243,897.382271 494.716323,903.047731 494.716323,909.554369 Z M457.12597,897.040422 C456.725289,897.96034 456.324607,898.880257 455.922035,899.802095 C458.558596,900.470427 461.195156,901.134918 463.795806,901.793648 C464.391158,904.05215 465.09802,906.72548 465.804883,909.40265 C466.613806,909.097291 467.422729,908.790012 468.231652,908.482733 L468.231652,897.040422 L457.12597,897.040422 Z M554.843123,888.350182 C553.763928,888.284885 552.682844,888.217668 551.60176,888.14853 C551.085788,894.303717 550.360025,900.453142 550.220165,906.614091 C550.189925,907.92963 552.282163,909.295102 554.843123,912.381338 L554.843123,888.350182 Z M570.278811,887.749067 C569.214737,887.929593 568.148773,888.108199 567.080919,888.288726 L567.080919,911.716847 C569.80064,908.830342 572.244419,907.409176 572.187719,906.095557 C571.928788,899.965337 570.981894,893.862003 570.278811,887.749067 Z M423,876.652446 L431.034421,876.652446 C431.639223,872.102793 432.206225,867.814327 432.835597,863.082227 L447.218552,863.082227 C447.502053,867.278509 447.810125,871.814718 448.159776,876.971248 L476.405934,876.971248 C477.127916,872.809535 477.800759,868.935896 478.14285,866.963547 L509.69085,866.963547 C499.15595,864.370879 497.838615,856.375857 501.153688,851.349922 C503.491627,847.806608 511.890819,848.390439 518.195883,847 C518.965116,852.730758 519.448958,856.360494 520.06699,860.96392 C524.425347,860.96392 528.426492,860.76995 532.403067,861.019615 C536.621563,861.284643 542.246225,858.743828 543.261158,866.46998 C543.385899,867.428307 547.470204,868.284848 549.762783,868.421203 C554.710822,868.715039 559.687211,868.511467 565.247612,868.511467 C566.496907,882.730813 576.852256,877.069193 584.442525,877.860437 C593.331229,889.606186 588.679922,903.239781 589.507745,916.11286 C589.549325,916.746624 589.679735,917.787532 589.377334,917.969979 C576.028213,925.96308 584.349915,939.492968 581.375044,950.109466 C581.293773,950.403302 581.108553,950.666409 580.636051,951.620896 C573.729965,952.243136 566.411857,952.901866 558.857498,953.583642 C562.293531,963.958157 558.031565,975.707746 549.356432,980.637657 C550.662427,982.723315 552.577004,984.64381 553.043836,986.877346 C553.414277,988.651884 552.480614,991.221506 551.246439,992.658037 C550.320335,993.735434 546.710422,994.277014 546.487401,993.858346 C542.633676,986.577749 537.218805,991.233029 532.251866,991.451966 C527.377538,991.665141 522.463519,990.668404 517.55517,990.535889 C515.820144,990.487877 514.056767,991.419317 511.817109,992.037717 L511.817109,985.450418 C515.944884,985.137377 519.738129,984.853144 523.533263,984.56699 C523.646664,983.896738 523.761954,983.228405 523.875355,982.560073 C521.267145,981.363604 518.657045,980.165215 515.599013,978.759413 L515.599013,951.878242 C519.078516,950.528134 521.943767,949.418088 524.809018,948.308041 C524.655927,947.353555 524.504727,946.397149 524.351636,945.440742 L479.301425,945.440742 L479.301425,956.785107 L487.655256,956.785107 C485.107527,959.97697 482.988829,962.631094 480.81154,965.362039 C480.433539,964.689865 479.755026,963.478033 478.571882,961.367409 C477.855569,963.141946 477.379287,964.324971 476.577924,966.312684 C474.143595,959.264466 471.877476,952.702134 469.613248,946.151325 C457.456721,945.579018 444.907074,944.989426 432.355536,944.401754 C432.381996,944.165533 432.408456,943.933153 432.433026,943.698853 C436.933133,942.859597 441.43324,942.016499 445.933347,941.177243 C445.663076,940.12097 445.392805,939.062778 445.122534,938.006505 L432.656047,938.006505 C428.734282,925.778712 438.558539,910.524219 423,900.808434 L423,876.652446 Z" id="Stroke-11"></path>
                        <path d="M1254.74263,452.00346 C1235.76053,420.658208 1225.84161,385.869056 1218.83825,350.177564 C1211.7319,313.962753 1195.87697,281.626658 1174.79387,252.815268 C1146.57445,214.253219 1118.21086,176.556955 1097.76068,132.34999 C1081.10991,96.3564356 1080.53316,61.894358 1090.35472,25.3236137 C1090.83035,23.5535651 1091.28538,21.7758205 1091.74977,20 C1090.52512,20.8426971 1089.30796,21.7027098 1088.09642,22.5761904 C1087.28185,25.8988795 1086.45793,29.2215687 1085.6752,32.5519537 C1079.07257,60.6726396 1076.39107,88.485491 1087.94099,116.338746 C1103.9888,155.043168 1123.8847,191.182944 1149.1436,224.450239 C1165.53408,246.035213 1180.919,268.601409 1194.8789,291.91218 C1210.07094,317.281595 1214.92835,346.777916 1221.66393,375.321875 C1228.50063,404.298725 1239.1948,431.56517 1254.32692,457 C1254.54788,455.279974 1255.42986,453.140524 1254.74263,452.00346 Z" id="Stroke-13"></path>
                        <path d="M798.126225,129.427409 C798.456053,124.55071 798.769297,119.944296 799.080699,115.339812 C800.053599,115.305061 801.028341,115.268379 802.003084,115.233629 C802.548497,118.569708 803.095753,121.905787 803.759094,125.956188 C806.001554,122.091124 807.750194,119.079386 809.496992,116.067648 C810.39803,120.367097 811.299067,124.666547 812.295921,129.427409 L798.126225,129.427409 Z M795.447066,126.052718 C795.319925,127.597199 793.403608,129.240141 791.935045,130.234401 C791.509401,130.52206 788.84314,128.743977 788.821028,127.863622 C788.675462,122.280323 788.743639,116.65262 789.362757,111.115656 C789.475156,110.105951 792.447291,109.445686 795.611058,107.876107 C795.611058,115.561831 795.876394,120.840095 795.447066,126.052718 Z M892,3.93639312 C890.535122,3.97114395 889.068402,4.00396417 887.605367,4.03485379 C884.706937,11.9503192 882.307854,18.444862 880.08382,24.9741557 C879.531036,26.5958608 879.897716,28.5650741 879.84428,30.3740476 L879.577101,30.096041 C879.859021,31.2891526 880.142784,32.4841948 880.631076,34.5537994 C875.03506,33.8008649 870.03605,33.1251544 863.371318,32.2274248 C865.03704,34.9959071 866.374778,37.2199598 869.162651,41.8514724 C865.879115,44.7840558 861.314962,48.8614858 856.725012,52.9601524 C844.65221,66.7793966 841.626639,84.3710358 839.20913,102.217514 L836.972198,101.862284 L836.972198,51.2264724 L819.570558,51.2264724 C818.949598,53.8926328 818.319424,56.5993359 817.691093,59.3060389 C816.917195,59.3388591 816.143298,59.37361 815.371243,59.4064302 C814.637883,56.5491402 813.904523,53.6918503 812.430432,47.950242 C811.044787,53.2825628 810.333538,56.0240167 809.620447,58.7654706 C808.942365,58.9179881 808.262441,59.068575 807.584359,59.2191619 C806.707275,56.6862129 805.828349,54.1551946 804.693299,50.8789642 C800.27287,50.5777904 795.214896,50.2322127 788.428552,49.770799 C789.263256,40.8958248 790.407518,32.6019615 790.707864,24.2733474 C790.914237,18.5201555 789.911855,12.7244903 789.54149,6.94233937 C789.412507,4.94416701 789.605982,3.33790671 790.215887,2.11583608 C788.938956,2.07529345 787.662025,2.03668143 786.383251,2 C787.422485,7.13733011 786.584096,12.8924526 786.552771,18.3425402 C786.552771,18.4429314 784.864938,18.5298085 783.9639,18.6224773 C792.235391,28.124897 787.627015,39.2741196 787.429855,49.7843132 C787.271391,58.2905426 786.392464,66.7832578 785.848893,75.2817648 C785.469315,81.2125721 789.731279,88.4484658 780.766966,91.9949804 C779.268921,92.5896056 779.421858,97.7655478 778.397365,102.899017 C771.178006,88.5179675 765.410627,75.2682506 758.159944,62.9819038 C754.297826,56.4352348 750.218281,50.1163766 745.737045,44.226112 C745.495663,44.4712984 745.245068,44.7049012 745,44.9462263 C746.109253,47.1393894 746.934744,49.38854 747.375128,51.6782331 C759.510579,69.339374 767.45777,89.8365682 777.610569,108.121293 C780.365276,106.66562 782.108388,105.744723 783.8515,104.825757 C784.610657,106.974516 785.972348,109.109761 786.025784,111.277826 C786.263481,121.08335 786.12897,130.898528 786.12897,139.427924 C792.368059,140.702121 800.698513,141.194424 800.85145,142.632722 C801.874101,152.326272 806.919176,147.712134 810.410928,146.534468 C812.710509,149.320325 814.645253,151.662145 814.92533,152 C818.503685,147.534519 821.112826,143.933948 824.096016,140.711774 C825.393216,139.312088 828.315601,139.140265 829.02685,137.644049 C832.12981,131.103171 835.177493,124.448389 837.335193,117.523322 C840.545025,107.231286 842.982802,96.674758 845.405839,87.5314302 C849.783888,86.0294224 853.264584,83.7667576 856.588659,83.9945686 C859.962483,84.2262407 863.179686,86.9213602 866.699077,88.6531096 C866.435584,85.3421283 866.218155,82.602605 865.973088,79.5252265 C860.63688,80.3862747 855.300672,81.2434617 849.279012,82.2126236 C848.871794,80.8245212 847.98734,78.8456549 847.733059,76.7799114 C846.677242,68.1655684 870.771253,40.8012253 878.847427,37.6833042 C880.607122,37.0018019 882.083055,35.5171695 883.693499,34.4032125 C882.412883,33.0653058 881.132267,31.7254685 879.853493,30.3837006 C882.35392,25.2540929 885.25235,20.2924475 887.290281,14.9659185 C889.245293,9.85368616 890.577503,6.33419996 892,3.93639312 Z" id="Stroke-15"></path>
                        <path d="M1100.32173,383.402355 C1100.88379,384.298352 1101.44585,385.196284 1102.00792,386.092281 C1103.60894,384.306093 1106.87344,381.471027 1106.53469,380.90982 C1104.63844,377.767057 1110.70947,368.23814 1100.32173,371.553135 L1100.32173,383.402355 Z M1076.823,395.133529 C1077.76356,408.511556 1077.76356,408.511556 1082.40009,408.933429 L1082.40009,401.386155 C1085.35045,400.675937 1087.7728,400.091507 1090.19515,399.507077 C1088.03964,398.545284 1085.93332,397.428674 1083.71157,396.666206 C1081.80397,396.015979 1079.76578,395.768274 1076.823,395.133529 Z M1069.00334,384.623466 L1082.37738,384.623466 L1082.37738,370.87001 L1069.00334,370.87001 L1069.00334,384.623466 Z M1114.35814,430 C1113.06369,422.108261 1112.32941,417.6186 1111.59325,413.127004 C1110.27798,417.529581 1108.96272,421.930222 1107.84427,425.680637 C1106.4306,424.275683 1104.29023,422.1489 1102.14796,420.024052 C1101.19794,422.729459 1100.24603,425.434867 1099.43606,427.741623 L1066,427.741623 L1066,360 L1123.96618,360 C1123.96618,382.12706 1124.16489,403.226529 1123.59904,424.306646 C1123.55173,426.052195 1118.32663,427.652604 1114.35814,430 Z" id="Stroke-17"></path>
                        <path d="M494.882803,527.707087 L494.882803,514.794631 L482.581287,514.794631 C482.789052,519.491124 482.962491,523.393271 483.153997,527.707087 L494.882803,527.707087 Z M465.560787,480 C478.492826,481.059127 490.335451,481.853472 502.122071,483.223765 C503.563781,483.391911 505.755254,486.617609 505.798614,488.474946 C506.111165,502.189477 505.966633,515.915605 505.966633,529.813744 C497.430187,531.303865 489.688669,532.656764 481.992317,534 C476.288706,517.881174 469.988899,512.6068 454,513.010737 C465.643893,504.607301 466.518315,493.54252 465.560787,480 Z" id="Stroke-19"></path>
                        <path d="M470.79075,26.6879502 C464.585703,19.5155311 458.384303,12.3142298 451.5283,4.36006507 C449.874472,4.25416358 448.222467,4.13093275 446.570462,4 C460.811255,20.5803225 475.165098,37.0720728 488.762228,54.2281142 C494.212386,61.1040092 490.352237,69.0581739 482.225322,71.0260161 C481.309972,71.2512975 480.265161,71.6286919 479.634263,72.3045359 C476.456069,75.7030111 473.917889,80.1027366 470.20726,82.5519493 C451.466304,94.9154669 432.417193,106.753328 413.512131,118.837651 C408.503238,122.039727 404.068717,125.730875 399.72719,130.190291 C386.390807,143.880465 377.514471,160.480042 369.1651,177.478194 C361.789427,192.495026 358.200967,207.927761 367.881423,223.930439 C370.908275,228.932841 373.012485,234.976927 374.044532,240.838094 C379.015134,269.036772 384.984961,297.179612 379.961481,326.23513 C378.883849,332.462138 379.390755,339.018403 379.432693,345.420629 C379.443634,347.159339 380.426449,348.890347 381.39103,352 C384.809914,317.056359 386.137353,283.855279 378.741623,251.089358 C376.239911,240.006285 372.416231,229.206259 368.592551,218.51791 C365.877501,210.933438 363.616479,203.88425 365.879325,195.417907 C371.699633,173.648411 382.641886,154.6131 396.798802,138.568061 C419.585893,112.747352 449.872648,97.8999635 479.38628,80.9884582 C480.268808,83.7226421 480.907,85.6962608 480.83224,85.465203 C482.506126,82.3998362 484.192776,77.3473724 487.392851,73.8333684 C495.031094,65.4498213 496.418706,57.5110605 489.593701,48.5132847 C483.780686,40.8517932 477.076026,33.9489415 470.79075,26.6879502 Z" id="Stroke-21"></path>
                        <path d="M627.580789,369 C629.397857,403.922053 642.274132,435.855958 656.307058,466.315043 C666.528755,488.502812 683.788129,506.192955 708.424613,516.008405 C747.350442,531.513273 786.219084,525.818079 825.524928,522.568083 C868.920559,518.979225 909.052847,503.853651 948.305194,485.499261 C950.247704,484.590494 951.524263,482.131818 951.585139,482.064431 C961.251569,478.092428 969.641441,475.148563 977.594109,471.236246 C985.502503,467.345107 992.973694,462.483591 1000.63858,458.047577 C1001.09239,458.856226 1001.54619,459.666799 1002,460.475448 C992.523578,465.899167 983.392122,472.16234 973.504323,476.584876 C948.262765,487.877072 922.650415,498.264351 897.248364,509.169551 C865.795572,522.672052 832.429785,525.467664 799.111961,527.618284 C779.008,528.915972 758.44101,530.138571 738.678326,527.127319 C721.485362,524.506913 702.691165,519.402802 689.014273,509.050179 C671.170117,495.543828 654.449407,478.602646 647.522413,454.456794 C642.628322,437.398166 635.387723,421.069247 630.578489,403.989441 C627.4369,392.837796 626.774639,380.923711 625,369.354265 C625.859648,369.234893 626.721141,369.119372 627.580789,369 Z" id="Stroke-23"></path>
                        <path d="M462.572831,648 C453.789273,640.288561 445.262383,632.229122 436.159824,624.951727 C424.809582,615.878883 412.278667,608.297466 401.520596,598.559217 C383.185309,581.956582 376.409264,558.873891 374.458585,534.789268 C370.978895,491.824716 374.174416,448.976802 379.313283,406.245525 C380.825793,393.675478 380.554458,380.872157 383.30081,368 C383.30081,377.753546 383.880147,387.55107 383.187142,397.251077 C381.351963,422.922731 378.101442,448.514078 377.060102,474.208677 C376.159929,496.425193 376.114096,518.886456 378.24261,540.971039 C380.761626,567.109242 391.758032,588.874506 413.78751,604.352834 C429.840282,615.630312 444.21921,629.508225 459.254475,642.340228 C460.810986,643.667215 461.766159,645.759036 463,647.49521 L462.572831,648 Z" id="Stroke-25"></path>
                        <path d="M839.368825,192.909833 C805.022973,178.373718 775.119201,189.731789 746.809882,210.175171 C725.825134,225.328178 704.645895,240.206162 683.998752,255.84428 C654.806888,277.956899 637.286265,307.67276 632.4497,345.182851 C632.101085,347.885335 631.339638,350.530522 630.00573,353 C629.798396,333.244176 635.231275,315.260723 644.13195,297.791028 C657.247188,272.057272 678.486976,255.464213 700.768937,239.713413 C720.14272,226.019555 739.287152,211.959001 758.95267,198.740704 C780.788772,184.061348 804.923893,181.177425 830.046143,186.435332 C833.591001,187.176366 836.693668,190.214989 840,192.189807 C839.788997,192.430453 839.579828,192.671098 839.368825,192.909833 Z" id="Stroke-27"></path>
                        <path d="M888.839907,759.795054 C863.677629,773.9581 837.225403,785.430379 808.511627,785.878199 C776.472691,786.379835 744.168772,785.409237 712.380097,781.517234 C683.487826,777.978875 657.377868,763.652461 631.784995,749.370253 C624.23852,745.161124 616.469386,741.38444 608.926591,737.167623 C605.838811,735.439766 603.082259,733.073813 600.174815,731 C600.172975,731 600,731.213339 600,731.213339 C611.120056,736.296968 622.777437,740.40231 633.264479,746.648734 C668.317589,767.529088 705.389349,781.125151 745.915079,783.245091 C761.802976,784.077307 777.714795,784.496298 793.621094,784.865317 C822.176617,785.532243 848.174324,774.938308 874.252999,764.680719 C879.050283,762.79526 884.077586,761.544053 889,760.002628 C889,760.002628 888.839907,759.795054 888.839907,759.795054 Z" id="Stroke-29"></path>
                        <path d="M900,274.170674 C906.022801,282.012083 912.263699,289.686653 918.010618,297.735171 C924.41369,306.704178 930.367521,316.012615 936.912261,325.767872 C939.464169,322.975724 941.622759,320.615055 943.779485,318.252469 C944.616451,318.311917 945.453417,318.371366 946.290384,318.428896 C946.484247,322.327547 946.532712,326.239622 946.91671,330.119096 C947.242922,333.41943 946.816051,337.816678 948.670798,339.780386 C966.763435,358.911199 984.925043,378.005576 1003.76331,396.350138 C1017.30948,409.539967 1021.90814,426.883498 1014.42391,447 C1014.42391,437.430758 1016.00091,428.870218 1013.98772,421.326051 C1011.90742,413.538337 1007.83816,404.945196 1002.04091,399.800051 C969.328392,370.750978 940.588202,338.263499 916.916411,301.06427 C911.223549,292.120193 905.758104,283.02462 900.188271,274 L900,274.170674 Z" id="Stroke-31"></path>
                        <path d="M1251.67528,459.535224 C1253.3421,459.427254 1255.56089,458.526859 1256.59559,459.330852 C1278.35901,476.2359 1276.7268,522.934938 1253.8212,537.794336 C1249.49657,540.599633 1244.61633,542.535385 1239.84357,544.459568 C1205.64366,558.258545 1175.24737,578.990751 1145.96959,601.805239 C1144.31006,603.098953 1142.33902,603.945363 1140.51371,605 C1140.51371,604.998072 1140,604.406164 1140,604.406164 C1152.28348,594.8026 1163.83283,583.839769 1177.0071,575.890464 C1201.52852,561.092762 1226.76038,547.532863 1252.18352,534.52631 C1262.66355,529.162505 1264.38867,519.289016 1267.32701,509.857048 C1273.4387,490.235393 1267.46364,471.666447 1251.77729,459.402189 C1251.72993,459.436894 1251.67528,459.535224 1251.67528,459.535224 Z" id="Stroke-33"></path>
                        <path d="M876,567.964612 C871.796294,578.563434 868.451808,587.000112 864.18343,597.75734 C859.466041,597.75734 852.143278,598.514399 845.075509,597.354124 C842.551438,596.940622 840.642679,591.890135 839,589.693019 C845.947663,583.74764 853.458899,580.628887 855.051688,575.313019 C859.10018,561.811453 866.908909,569.096086 876,567.964612 Z" id="Stroke-35"></path>
                        <path d="M990.16912,710 C1000.28099,703.729253 1010.65676,697.871182 1020.45083,691.110983 C1045.17761,674.045416 1069.86723,656.899233 1094.13125,639.146513 C1109.32414,628.02923 1123.72348,615.754536 1138.47777,604 C1138.47591,603.998085 1139,604.589267 1139,604.591186 C1116.79515,623.635676 1095.68492,644.300157 1072.08437,661.277431 C1047.44493,679.003279 1020.4211,693.193554 994.391536,708.842589 C993.164954,709.581566 991.473757,709.495192 990,709.794622 L990.16912,710 Z" id="Stroke-37"></path>
                        <path d="M461.430539,649 C463.252475,650.079419 465.3368,650.855371 466.853848,652.282432 C483.674422,668.114546 503.311052,678.466978 524.505382,686.618318 C535.547868,690.866849 545.537104,698.171171 555.836773,704.390313 C568.222613,711.871338 580.458782,719.623178 592.691255,727.380779 C594.596342,728.586963 596.12263,730.442334 597.824458,732 C597.824458,732 598,731.786805 598,731.786805 C588.036632,726.524159 578.028917,721.347943 568.113593,715.989263 C542.368118,702.073981 516.317755,688.711853 491.100753,673.82663 C480.165439,667.369325 470.979998,657.710256 461,649.507058 L461.430539,649 Z" id="Stroke-39"></path>
                        <path d="M874.904966,604.750296 C875.679338,608.825123 876.255058,611.863867 877,615.780132 C875.502759,614.64196 874.119559,613.590672 872.734519,612.539384 C872.76027,613.060684 872.784181,613.584156 872.808093,614.1098 C869.208461,613.679728 865.60699,613.26486 862.007357,612.817411 C860.050276,612.57631 858.003066,611.692272 856.161864,612.115828 C850.391784,613.434282 844.700797,615.237111 838.244635,617.059488 C837.113427,611.88776 836.305947,608.197391 835.853464,606.127396 C832.456162,609.876411 828.775598,613.938206 825.096873,618 C824.397915,616.864001 823.698958,615.730174 823,614.592002 C823.868179,614.174963 825.190681,614.048982 825.53832,613.297441 C832.984059,597.197965 846.255058,605.938425 856.757817,603.449219 C862.509503,602.087323 868.851625,604.205103 874.904966,604.750296 Z" id="Stroke-41"></path>
                        <path d="M766.234201,1006.87326 C771.001859,1004.66479 772.684015,1006.86154 776.124535,1011.0344 C783.698885,1020.21781 781.828996,1032.54892 787,1040.46114 C777.83829,1060.18896 782.273234,1084.04864 766,1100 C768.342007,1094.554 771.009294,1089.22907 772.934944,1083.62296 C774.767658,1078.29412 776.241636,1072.74268 777.128253,1067.15999 C778.633829,1057.66221 781.360595,1047.81489 780.217472,1038.57095 C779.063197,1029.24305 773.929368,1020.42284 770.295539,1011.48937 C769.54461,1009.6441 767.728625,1008.27723 766.401487,1006.68776 L766.234201,1006.87326 Z" id="Stroke-43"></path>
                        <path d="M208.716407,615.649988 L208.716407,600.328575 L195.872419,600.328575 C195.563411,601.277569 195.258241,602.224627 194.951153,603.175557 C198.175585,604.508023 201.400017,605.842425 204.53808,607.136155 C201.407694,608.666166 198.415498,610.122582 195.425221,611.582871 C199.580516,612.855297 203.735811,614.125787 208.716407,615.649988 Z M220,616.15741 C216.639297,616.445981 214.153798,616.76554 211.656782,616.86044 C189.786303,617.6758 188.11075,615.438885 193.759264,596 C202.545842,596.747575 210.977348,597.466099 220,598.234978 L220,616.15741 Z" id="Stroke-45"></path>
                        <path d="M992.831899,709.003592 C986.224221,713.246158 979.865925,718.001751 972.964532,721.633295 C948.983301,734.255312 924.833968,746.529546 900.682787,758.794173 C898.362619,759.972023 895.573244,760.150718 893,760.790562 C893,760.790562 893.160712,761 893.158865,761 C899.428492,757.378063 905.59652,753.54861 911.991761,750.186069 C924.77855,743.462909 937.740828,737.100982 950.536853,730.395115 C963.846418,723.420245 977.034064,716.195586 990.314072,709.161151 C991.019729,708.78839 992.096686,709.174601 993,709.207266 C993,709.209188 992.831899,709.003592 992.831899,709.003592 Z" id="Stroke-47"></path>
                        <path d="M712.914679,1072 C703.346585,1063.78841 712.206805,1052.76764 707,1042.92968 C710.596392,1042.2196 713.571429,1041.63598 717.852099,1040.79361 C717.39788,1036.60319 717.930751,1032.24741 716.381294,1028.81181 C708.647773,1011.64742 710.680944,1007.63987 730,1004 C729.858425,1004.56417 729.856459,1005.5252 729.549714,1005.6322 C713.5439,1011.21943 714.015816,1011.06769 719.434983,1028.35464 C721.320681,1034.36791 722.136702,1041.10488 716.509105,1047.30492 C713.610755,1050.49734 713.718902,1056.57676 713.012995,1061.43057 C712.509618,1064.88757 712.914679,1068.47296 712.914679,1072 Z" id="Stroke-49"></path>
                        <path d="M838.631516,191 C847.294661,200.249296 856.864692,208.730273 864.409835,218.928668 C875.817503,234.346126 885.864843,250.920974 896.347267,267.11068 C897.619478,269.073723 898.014175,271.68915 898.814584,274 L899,273.825114 C895.137474,268.594261 891.561334,263.078482 887.316962,258.228841 C884.302576,254.790076 880.390484,252.253249 877.289816,249.657473 C876.854731,249.954189 878.339894,248.93828 881.154177,247.012571 C866.653184,228.43931 852.326592,210.090059 838,191.740808 C838.211117,191.495182 838.422234,191.247591 838.631516,191 Z" id="Stroke-51"></path>
                        <path d="M907,428.528576 C903.645065,433.682901 900.288243,438.837226 896.927647,444 C895.478496,441.678441 894.051988,439.390682 892.627367,437.105035 C891.472575,438.712592 890.321556,440.322263 888.861084,442.360756 C885.536339,438.262645 881.76817,433.623753 878,428.984861 C878.664194,427.987795 879.330275,426.992841 879.996356,426 L904.684755,426 C905.456503,426.842859 906.228252,427.685718 907,428.528576 Z" id="Stroke-53"></path>
                        <path d="M469.866451,542.9203 C466.192224,546.464796 463.812725,548.75942 459.092607,553.312247 C460.502032,545.013642 460.167658,540.525992 453,541.039743 C462.127246,541.039743 471.252548,540.980316 480.37785,541.114505 C481.464566,541.129841 483.363888,542.059576 483.484418,542.791862 C484.506981,548.993292 485.20489,555.250314 486,561.490083 C485.138792,561.658778 484.281473,561.829389 483.420265,562 C480.856082,558.334735 478.31134,554.654133 475.719941,551.008038 C473.567894,547.97921 471.363358,544.984887 469.866451,542.9203 Z" id="Stroke-55"></path>
                        <path d="M254.871474,236.881054 C251.630693,248.22535 248.358179,259.561968 245.157065,270.917781 C241.477966,283.962762 242.45377,285.822765 255.323675,291.642715 C256.876632,292.347175 258.098371,293.736899 261,296 C240.087643,290.026489 238.110251,286.047348 243.643775,268.046196 C246.878606,257.52345 249.040448,246.691663 251.684243,236 C252.747314,236.293685 253.808402,236.58737 254.871474,236.881054 Z" id="Stroke-57"></path>
                        <path d="M270.74211,267 C272.978004,268.091503 275.215811,269.184914 276,269.566558 C274.995856,289.555178 274.542557,308.925534 272.631814,328.150865 C272.237807,332.110425 266.518967,335.657808 262.871533,338.980022 C262.555945,339.266255 259.365636,336.413464 258,334.482344 C263.948358,337.648083 270.286898,335.018554 270.879821,328.339779 C271.436404,322.054097 270.774625,315.665372 271.157157,309.352975 C271.895442,297.149899 272.98948,284.965905 273.963022,272.446064 C267.75263,270.089411 267.75263,270.089411 270.791839,267.003816 L270.74211,267 Z" id="Stroke-59"></path>
                        <path d="M661,984.319778 C656.653267,985.956124 652.304688,987.59247 648.476609,989.032299 C646.669623,991.731005 644.906935,994.363557 643.144247,997 C642.171539,994.573694 641.200676,992.145442 639.773914,988.584785 C626.443931,984.798424 620.893771,974.713785 625.714862,957 C627.339119,967.843467 624.380387,979.231735 633.837992,984.185524 C642.415177,988.676233 651.813719,987.522424 660.237707,981.305866 C660.49242,982.311801 660.745287,983.315789 661,984.319778 Z" id="Stroke-61"></path>
                        <path d="M277,435.800508 L277,362.003874 C278.00076,362.001937 278.99924,362 280,362 L280,436 C278.99924,435.932211 278.00076,435.86636 277,435.800508 Z" id="Stroke-63"></path>
                        <path d="M261,173.14465 C255.870089,187.601628 255.535189,187.590932 241.439709,173.277282 C246.213787,175.324534 250.98961,177.373926 255.765433,179.421177 C256.325345,178.492748 256.885257,177.566457 257.443425,176.640166 C254.453739,174.049548 251.533824,171.319879 248.451691,168.906817 C245.046868,166.237046 241.490293,163.853934 238,161.344606 C238.362809,160.563784 238.725618,159.782962 239.086683,159 C246.222509,163.605782 253.35659,168.209425 261,173.14465 Z" id="Stroke-65"></path>
                        <path d="M270.492298,265 C271.127728,256.649157 271.761232,248.298313 272.444801,239.306807 C270.998716,238.803164 268.497433,237.927344 266,237.053375 C266.067394,236.681198 266.134788,236.310872 266.204108,235.938695 L273.960205,235.938695 C276.2362,230.150505 278.429397,224.575253 280.620668,219 C281.747112,219.381435 282.873556,219.764722 284,220.146158 C280.249037,230.948557 276.342105,241.704665 272.82991,252.577426 C271.539795,256.567685 271.181643,260.839391 270.421053,264.98889 C270.442234,264.996297 270.492298,265 270.492298,265 Z" id="Stroke-67"></path>
                        <path d="M1283,728.645113 C1283.63154,725.102188 1284.26307,721.559263 1285.22792,716.146846 C1289.76563,720.406674 1292.2255,722.715813 1295.2136,725.520051 C1300.62065,721.280028 1305.90294,717.139024 1311.18524,713 C1311.45618,713.310922 1311.72906,713.623824 1312,713.934746 L1294.81792,733 C1290.87861,731.548371 1286.93931,730.096742 1283,728.645113 Z" id="Stroke-71"></path>
                        <path d="M930.29596,617 L909,617 C912.135289,613.888655 915.681585,607.67883 919.840753,607.039835 C923.54163,606.473746 927.920851,612.081029 932,614.965081 L930.29596,617 Z" id="Stroke-73"></path>
                        <path d="M307.905666,448 C311.117401,455.586993 306.893979,482.811465 300,496 C302.685434,479.687964 305.348552,463.532576 307.905666,448 Z" id="Stroke-75"></path>
                        <path d="M308,614.701805 C304.709647,619.112243 302.313412,622.321743 301.059765,624 C299.623529,614.629252 297.929412,603.572611 296,591 C300.421647,599.733048 304.246588,607.286161 308,614.701805 Z" id="Stroke-77"></path>
                        <path d="M833,430 L849,430 L849,449 C843.430893,446.847627 841.46912,439.117272 845.966844,433.035301 C844.269276,432.506681 842.750618,431.881432 841.159147,431.591544 C839.906774,431.362286 838.564946,431.544176 836.505396,431.544176 C836.669744,434.37864 837.040047,436.73564 836.875699,439.062325 C836.70719,441.421221 836.012352,443.751695 833.794695,446.264061 C833.547133,441.193857 833.299571,436.125548 833,430 Z" id="Stroke-79"></path>
                        <path d="M702,1197.10796 C708.387277,1193.11118 711.274045,1159.26597 709.471634,1138 L709.471634,1198 C707.307771,1197.74127 704.99108,1197.4671 702,1197.10796 Z" id="Stroke-81"></path>
                        <path d="M798.054304,404 C799.757885,409.513116 801.205359,414.194906 803,420 C797.95945,419.626917 792.273891,419.207198 787,418.817894 C790.526678,414.091497 793.886412,409.586111 798.054304,404 Z" id="Stroke-83"></path>
                        <path d="M766,1008.79833 C754.999345,1004.99632 743.99869,1001.19643 733,997.396547 L733.917704,994 C743.819865,997.09298 753.76919,1000.03099 763.565236,1003.48273 C764.746263,1003.89881 765.090157,1007.09157 765.823141,1009 L766,1008.79833 Z" id="Stroke-85"></path>
                        <path d="M1286.7215,727 C1290.481,728.516186 1294.2405,730.032372 1298,731.548558 C1295.751,736.384633 1293.50013,742.267352 1287.38932,739.108804 C1283.46612,737.083775 1280.4321,732.92202 1277,729.717965 C1277.58969,728.948496 1278.18124,728.176958 1278.77279,727.407488 L1288.99655,738.546181 C1289.74993,737.820149 1290.50332,737.098254 1291.25671,736.374291 C1289.74435,733.248838 1288.232,730.125453 1286.7215,727 Z" id="Stroke-87"></path>
                        <path d="M366.533067,768 C362.90968,762.800867 360.85557,759.855436 358,755.759825 C361.957823,754.573133 365.234901,752.73731 368.318046,753.031447 C369.829934,753.175473 372.250143,757.443509 371.979032,759.536956 C371.642617,762.153765 368.961192,764.454122 366.533067,768 Z" id="Stroke-89"></path>
                        <path d="M1030.44193,960.111501 C1041.43897,957.336462 1052.00854,954.669211 1062.57811,952 C1062.71936,952.86034 1062.85875,953.718721 1063,954.579061 C1058.87774,955.116039 1054.60493,955.114079 1050.67224,956.333058 C1046.17084,957.726457 1041.79581,959.876328 1037.69213,962.308406 C1033.83007,964.597421 1030.39361,967.682104 1026,971 C1027.55932,967.178442 1029.00342,963.639092 1030.44193,960.111501 Z" id="Stroke-91"></path>
                        <path d="M545,842.294959 C552.439142,839.694959 557.655245,837.870732 563,836 C562.684045,840.236098 562.402144,843.973333 562.025646,849 C557.899306,847.374472 552.700231,845.328293 545,842.294959 Z" id="Stroke-93"></path>
                        <path d="M948.680187,84.9722913 C944.326664,86.410677 940.017508,88.2308566 935.584493,88.9944441 C934.621357,89.1609239 933.205307,85.5449819 932,83.6693091 C935.878425,82.0489053 939.682906,79.9623581 943.674097,79.0389499 C945.232492,78.6771338 947.212375,80.9279411 949,81.9867529 L948.680187,84.9722913 Z" id="Stroke-95"></path>
                        <path d="M320,162 C332.070827,142.708673 335.801534,140.678554 340,147.701894 C333.703248,152.202649 327.539059,156.609899 320,162 Z" id="Stroke-97"></path>
                        <path d="M656.17597,924.93532 C656.17597,921.082966 655.666389,917.14934 656.381552,913.418896 C656.764284,911.431764 659.268446,909.794108 660.812497,908 C661.949758,910.102946 664.265834,912.362343 663.974958,914.276329 C663.36696,918.28107 661.381127,922.102946 659.961738,926 C658.699815,925.646461 657.437892,925.290891 656.17597,924.93532 Z" id="Stroke-99"></path>
                        <path d="M1092,477.544958 C1093.12451,468.769995 1094.24691,459.995032 1095.52724,450 C1097.35931,450.288127 1099.88207,450.685544 1100,450.705415 C1097.90682,460.601093 1096.06633,469.300546 1094.22585,478 C1093.4846,477.846995 1092.74335,477.695976 1092,477.544958 Z" id="Stroke-101"></path>
                        <path d="M877.771368,80 C881.805827,87.8604553 892.377892,76.2394604 896,85.3246206 L894.59065,90 C888.393766,88.1618887 882.196883,86.3237774 876,84.4856661 C876.590456,82.9911467 877.180912,81.4945194 877.771368,80 Z" id="Stroke-103"></path>
                        <path d="M404,88 L404,52.0055794 C404.33365,52.0037196 404.66635,52.0018598 405,52 L405,87.9981402 C404.66635,87.9981402 404.33365,88 404,88 Z" id="Stroke-105"></path>
                        <path d="M284,447.259934 C282.821229,457.505976 281.639665,467.752018 280.460894,478 C278.97486,477.90107 277.486034,477.80214 276,477.70321 C277.418994,467.470747 278.837989,457.236343 280.256983,447 C281.505587,447.087291 282.751397,447.172643 284,447.259934 Z" id="Stroke-107"></path>
                        <path d="M777,118.081049 C770.556716,119.344443 764.113431,120.605407 757,122 C757.835311,119.677299 758.53963,115.495951 759.513526,115.391478 C765.280968,114.76221 771.111058,115.080489 776.920266,115.080489 C776.946844,116.081485 776.973422,117.082482 777,118.081049 Z" id="Stroke-109"></path>
                        <path d="M884,138 L884,159 C879.729785,158.673924 877.013306,158.464434 876,158.387925 C878.626407,151.693355 881.070624,145.46695 884,138 Z" id="Stroke-111"></path>
                        <path d="M300,182.266881 C297.379011,183.583562 294.823886,185.067064 292.123473,186.177207 C287.055841,188.260464 281.90491,190.125267 277,192 C278.164238,179.79835 294.279542,188.895967 298.051209,179 C298.70016,180.090284 299.351049,181.178582 300,182.266881 Z" id="Stroke-113"></path>
                        <path d="M764,392.898558 L772.625278,392.898558 C774.5209,388.432168 776.309671,384.21804 778.098442,380 C778.731635,380.123197 779.366807,380.244439 780,380.367636 C778.701954,384.687363 778.50606,389.982889 775.755627,393.015889 C773.559238,395.438768 768.250309,395.108286 764.324512,396 C764.215681,394.96749 764.10883,393.931068 764,392.898558 Z" id="Stroke-115"></path>
                        <path d="M80,70.3781543 C81.1596961,66.8094552 82.2579514,63.4375955 84.1184573,57.7194097 C86.0039235,63.4809002 86.9408966,66.3390089 88.0756324,69.7955095 C95.6347775,60.6562542 95.5656566,60.7271164 88.6439603,53.8141152 C87.7665081,52.9401481 87.4228233,49.7828434 87.8932298,49.4934894 C90.419985,47.9364895 93.2078638,46.4680672 96.0648635,46.0094313 C97.1688789,45.8322758 99.0140245,48.1904123 99.9433175,49.7533175 C101.245096,51.9421721 102.007346,54.4695905 103,56.847411 L97.391602,56.847411 L97.391602,74 C91.5086401,72.7736903 86.3764087,71.7048521 80,70.3781543 Z" id="Stroke-119"></path>
                        <path d="M118.961292,71.0167435 C118.501068,68.7397188 117.877884,66.4731106 117.768648,64.1752531 C117.754322,63.8627612 121.248089,62.6169599 121.561471,63.116947 C123.418486,66.0939537 124.817067,69.4563671 127,74 L102.124595,74 C101.750327,73.0291917 101.376059,72.0604666 101,71.0896583 C104.275294,68.4918086 107.5291,65.8606263 110.852745,63.3502744 C111.166127,63.1148638 111.909291,63.6440168 112.453681,63.8190123 C112.21372,64.3148328 111.671121,65.1231453 111.778566,65.2627251 C113.691094,67.7897433 115.682416,70.2375969 117.657621,72.7021168 C118.092775,72.1396313 118.526138,71.579229 118.961292,71.0167435 Z" id="Stroke-121"></path>
                    </g>
                </g>
            </g>
        </g>
    </g>
</svg>